# xmcd
#
# Track frame offsets: 
#        150
#        18223
#        36804
#        54877
#
# Disc length: 977 seconds
#
# Revision: 1
# Processed by: cddbd v1.5.2PL0 Copyright (c) Steve Scherf et al.
# Submitted via: ExactAudioCopy v1.0b3
#
DISCID=2203cf04
DTITLE=喜多村英梨 - Happy Girl
DYEAR=2012
DGENRE=Anime
TTITLE0=Happy Girl
TTITLE1=ココロノリズム
TTITLE2=Happy Girl -Off Vocal ver-
TTITLE3=ココロノリズム -Off Vocal ver-
EXTD=
EXTT0=
EXTT1=
EXTT2=
EXTT3=
PLAYORDER=
